PathFileType	4	(X/Y/Z)	Run_500 01
DataRate	CameraRate	NumFrames	NumMarkers	Units	OrigDataRate	OrigDataStartFrame	OrigNumFrames
120	120	5	42	mm	120	148	128
Frame#	Time	LASI			RASI			LPSI			RPSI			RTH1			RTH2			RTH3			LTH1			LTH2			LTH3			RTB1			RTB2			LTB1			LTB2			LTB3			RCAL			RTOE			RMT5			LCAL			LTOE			LMT5			LACR			RACR			CLAV			C7			RUA1			RUA2			RUA3			RLEL			LUA1			LUA2			LUA3			LLEL			LMEL			RFAsuperior			RFAradius			RFAulna			LFAsuperior			LFAradius			LFAulna			RMEL			RTB3			
		X1	Y1	Z1	X2	Y2	Z2	X3	Y3	Z3	X4	Y4	Z4	X5	Y5	Z5	X6	Y6	Z6	X7	Y7	Z7	X8	Y8	Z8	X9	Y9	Z9	X10	Y10	Z10	X11	Y11	Z11	X12	Y12	Z12	X13	Y13	Z13	X14	Y14	Z14	X15	Y15	Z15	X16	Y16	Z16	X17	Y17	Z17	X18	Y18	Z18	X19	Y19	Z19	X20	Y20	Z20	X21	Y21	Z21	X22	Y22	Z22	X23	Y23	Z23	X24	Y24	Z24	X25	Y25	Z25	X26	Y26	Z26	X27	Y27	Z27	X28	Y28	Z28	X29	Y29	Z29	X30	Y30	Z30	X31	Y31	Z31	X32	Y32	Z32	X33	Y33	Z33	X34	Y34	Z34	X35	Y35	Z35	X36	Y36	Z36	X37	Y37	Z37	X38	Y38	Z38	X39	Y39	Z39	X40	Y40	Z40	X41	Y41	Z41	X42	Y42	Z42	

146	1.4	1169.289492	997.304377	-427.787376	1151.04278	1044.378839	-207.379139	1011.445412	1077.103312	-400.318983	995.520911	1086.026528	-305.07617	1147.688148	923.917267	-144.585302	1293.504037	842.3357580000001	-167.919884	1297.428412	737.298815	-183.242285	1035.896646	857.377237	-500.077272	1041.740147	740.752644	-461.631846	908.915904	679.52253	-443.187173	1412.914586	541.065256	-237.504575	1352.068896	487.660514	-176.98541	813.741899	451.105729	-380.107495	723.890324	403.670183	-436.027852	667.90383	317.939032	-368.956595	1233.35982	234.662324	-276.869781	1441.023954	197.418146	-293.370746	1418.495853	152.618859	-194.808409	524.583218	337.514144	-383.471819	568.932306	155.317025	-291.803813	538.335377	123.453541	-391.047479	1193.264333	1518.963295	-499.796662	1091.905838	1508.412411	-159.982667	1202.244222	1462.749077	-282.070162	1104.982721	1541.573916	-352.563406	1031.515952	1463.882594	-125.338596	1001.339749	1381.764963	-128.588672	927.780569	1416.438805	-161.782599	842.173397	1339.61099	-146.168402	1196.112493	1442.794235	-557.754291	1141.836121	1377.962011	-563.553717	1216.489856	1341.656724	-584.17165	1190.112962	1220.600374	-624.821564	1134.439289	1201.084369	-575.248049	866.1267759999999	1270.085123	-88.12543100000001	887.958588	1090.326394	-34.661565	831.507235	1079.428356	-71.979106	1249.263475	1275.702549	-590.263554	1279.12117	1402.256099	-452.269367	1330.199614	1361.182842	-436.278263	860.08321	1322.445593	-207.054798	1370.450831	361.670226	-243.04345	
147	1.408333	1170.481719	1000.171756	-427.82861	1152.448013	1046.094619	-209.346748	1013.034344	1080.868437	-402.311722	997.947468	1089.512625	-307.499847	1144.613885	919.93713	-146.339623	1289.497049	836.45575	-169.457384	1292.066572	731.593942	-184.215581	1036.554375	862.0861640000001	-500.745345	1043.365738	743.837896	-460.841103	911.308571	681.657557	-442.755039	1416.787407	537.05747	-238.340836	1362.72799	478.490794	-177.869212	806.35666	456.91205	-377.223615	716.358806	413.527558	-435.531897	652.33336	333.146466	-369.197094	1267.848857	216.598922	-279.907151	1477.821836	196.674037	-297.310638	1459.556384	147.485968	-199.615761	511.013194	360.273956	-391.230079	541.4138850000001	180.379694	-290.360619	513.370107	145.79206	-389.354387	1196.232675	1521.104945	-498.877645	1091.162123	1508.570243	-159.47148	1202.937079	1463.980907	-280.836351	1106.241231	1543.106613	-351.820462	1030.423717	1465.159876	-126.024333	999.39539	1383.016659	-130.188015	925.944395	1419.909401	-163.227316	839.726734	1343.146456	-149.489362	1199.481896	1445.029731	-557.028397	1144.954055	1379.572344	-562.972726	1220.006893	1344.05443	-584.397752	1193.36947	1223.055561	-624.848987	1136.687525	1203.920525	-576.390401	862.650335	1274.100323	-91.252689	886.1423140000001	1094.403671	-38.044137	829.464277	1083.024855	-74.904597	1252.347846	1277.96761	-589.815054	1276.293528	1405.930919	-451.471372	1328.139615	1366.014218	-433.765991	857.407751	1326.587156	-210.132175	1392.327529	355.135487	-245.750082	
148	1.416667	1171.647391	1003.369065	-428.115188	1152.859651	1046.031446	-209.308147	1013.822254	1083.518506	-403.036769	999.4122609999999	1091.266358	-307.979984	1140.896541	914.071869	-147.595681	1285.558708	829.295976	-170.506123	1286.767909	724.445771	-184.145217	1038.270656	865.758807	-500.787909	1047.505032	744.874695	-458.527403	916.596999	680.389876	-442.977492	1418.420118	531.683759	-239.571655	1371.050907	469.028352	-179.226042	800.374609	461.865087	-374.718622	709.734326	423.333674	-435.161359	638.240484	349.096485	-369.580757	1299.418372	202.079993	-283.966757	1510.174953	196.958326	-300.780832	1495.535185	143.514593	-204.90355	499.278687	384.076061	-398.549233	516.171788	207.849308	-288.87548	489.380299	170.29731	-387.251488	1199.169666	1522.181241	-498.529428	1090.997701	1508.269092	-158.687005	1203.802331	1464.863324	-279.667218	1107.524964	1544.224748	-350.665089	1029.948601	1465.357002	-126.230678	998.276773	1383.265921	-131.579204	924.92435	1422.319324	-164.368107	838.150346	1345.647549	-152.577307	1202.365697	1445.38332	-556.69901	1147.205946	1380.185903	-563.170609	1222.592091	1345.306047	-584.756682	1194.829949	1224.787997	-625.239076	1137.271321	1206.337988	-577.851263	860.218993	1276.893119	-94.259046	885.027742	1097.222837	-41.565168	828.155174	1085.399772	-78.148837	1254.248275	1278.540288	-589.35291	1275.314866	1405.995714	-449.619564	1327.681767	1366.543423	-431.241448	855.671124	1329.626665	-212.943586	1411.213468	349.257188	-248.689186	
149	1.425	1172.919227	1006.479373	-428.650079	1152.408878	1044.315607	-207.604491	1014.178912	1084.962592	-402.716766	999.836332	1091.153516	-306.685833	1136.972636	907.749048	-148.245777	1281.497508	820.949261	-170.784522	1281.16698	715.976851	-183.570502	1041.453913	867.325032	-500.311032	1053.486643	744.025566	-454.882291	923.857277	676.491374	-443.308833	1418.043547	525.4001060000001	-241.261228	1376.587069	459.650095	-181.094477	796.291684	466.29116	-372.962338	704.518218	433.499839	-435.251757	626.4019070000001	365.764729	-370.343035	1326.644647	190.966224	-288.712165	1537.219179	198.095511	-303.815112	1525.394075	140.568869	-210.841718	490.590443	409.251638	-404.611833	494.308403	236.819517	-287.973786	466.31237	197.270444	-385.100685	1201.965946	1522.346425	-498.442259	1091.481779	1507.615527	-157.679235	1204.740446	1465.358926	-278.56595	1108.850697	1544.938792	-349.138618	1030.081793	1464.722828	-125.870107	998.017213	1382.757118	-132.626457	924.85666	1423.611246	-165.222343	837.524582	1347.129801	-155.342584	1204.719045	1444.277805	-556.551477	1148.507786	1380.428875	-563.95201	1224.157445	1345.622886	-585.033409	1194.372169	1225.956445	-625.896151	1136.027923	1208.518373	-579.568442	859.08037	1278.358529	-97.159998	884.637209	1098.655866	-45.218189	827.686866	1086.445747	-81.737613	1254.801712	1277.606971	-588.8411599999999	1276.307546	1402.807574	-446.621526	1328.639653	1362.7862	-428.660674	855.093767	1331.579466	-215.449665	1426.393162	343.979383	-251.522717	
150	1.433333	1174.321276	1008.99819	-429.464776	1151.747963	1041.615082	-205.734691	1014.413667	1085.235431	-401.82115	999.587187	1089.493264	-304.499708	1133.269794	901.784258	-148.289549	1277.054663	811.547689	-170.315378	1274.953438	706.509143	-183.045153	1046.193149	866.173207	-499.406549	1060.458776	741.930823	-450.732199	932.35835	670.819417	-443.632716	1416.034858	518.728608	-242.987349	1378.913093	450.685739	-183.370426	794.650341	469.857905	-372.289617	701.273116	444.124251	-435.874574	617.3843869999999	382.894191	-371.659302	1348.290702	182.742296	-293.887393	1558.182637	199.551921	-306.719208	1548.296495	138.239567	-217.257235	485.670633	435.87862	-408.811056	476.520488	266.456458	-288.084269	444.540928	227.011284	-383.542144	1204.510957	1521.733935	-498.270798	1092.618511	1506.618753	-156.496878	1205.701025	1465.281591	-277.577659	1110.238387	1545.214151	-347.390611	1030.803647	1463.498044	-124.93849	998.560852	1381.655011	-133.265162	925.728854	1423.748883	-165.775448	837.863154	1347.57887	-157.650087	1206.440265	1442.438602	-556.421794	1148.932336	1380.741251	-564.908196	1224.654988	1345.116682	-585.0394219999999	1191.935374	1226.693905	-626.723085	1132.850191	1210.599895	-581.380476	859.380141	1278.404988	-99.952003	885.030068	1098.575709	-49.012007	828.172531	1086.081684	-85.65287499999999	1253.902228	1275.313543	-588.349126	1279.112513	1396.765117	-442.837665	1330.423942	1354.897623	-426.054892	855.727607	1332.469323	-217.61238	1437.335899	339.212879	-253.928173	
